# xmcd
#
# Track frame offsets:
#	150
#	14400
#	27600
#	41025
#	54825
#	66450
#	81075
#	98025
#	114525
#	132150
#	144450
#
# Disc length: 2005 seconds
#
# Revision: 0
# Processed by: cddbd v1.5.2PL0 Copyright (c) Steve Scherf et al.
# Submitted via: dBpowerAMP V4.0
#
DISCID=9607d30b
DTITLE=Various Artist - CDX Volume 17
DYEAR=1900
DGENRE=
TTITLE0=Tom Wopat - Back To The Well
TTITLE1=Sweethearts Of The Rodeo - Devil and Your Deep Blue Eyes
TTITLE2=Shelby, Lynne - Don't Cross Your Heart
TTITLE3=Jim Lauderdale - Maybe
TTITLE4=Hank Williams, Jr. - Monday Night Football Boogie
TTITLE5=Kentucky Headhunters - Only Daddy That'll Walk The Line
TTITLE6=Kelly Willis - Settle For Love
TTITLE7=Tracy Lawrence - Sticks and Stones
TTITLE8=Lionel Cartwright - What Kind Of Fool
TTITLE9=Marcy Brothers - Why Not Tonight
TTITLE10=Marcy Brothers - Star Spangled Banner
EXTD=
EXTT0=
EXTT1=
EXTT2=
EXTT3=
EXTT4=
EXTT5=
EXTT6=
EXTT7=
EXTT8=
EXTT9=
EXTT10=
PLAYORDER=
